<?xml version="1.0" encoding="UTF-8" standalone="no"?>
<!-- Created with Inkscape (http://www.inkscape.org/) -->

<svg
   width="249.99998"
   height="50"
   viewBox="0 0 66.145828 13.229167"
   version="1.1"
   id="svg1"
   xml:space="preserve"
   xmlns:xlink="http://www.w3.org/1999/xlink"
   xmlns="http://www.w3.org/2000/svg"
   xmlns:svg="http://www.w3.org/2000/svg"><defs
     id="defs1" /><g
     id="layer1"><image
       width="66.138229"
       height="22.046076"
       preserveAspectRatio="none"
       xlink:href="kogen-yasai-logotype2024.png"
       id="image1"
       x="1.3877788e-17"
       y="-4.2333331"
       style="display:none" /><path
       style="display:inline;fill:#000000;fill-opacity:1;stroke:none;stroke-width:0.0264583;stroke-dasharray:none;stroke-opacity:1"
       d="m 20.300814,12.084059 c -0.08883,-0.0026 -0.192292,-0.129985 -0.121376,-0.288707 0.07092,-0.158722 0.447615,-1.134548 0.742331,-1.791511 0.294716,-0.6569635 0.708826,-2.7103285 0.645568,-2.7601663 -0.06326,-0.049838 -0.568619,-0.014914 -0.841175,0.00358 -0.272556,0.018495 -0.820295,0.1413877 -0.910416,0.057284 -0.09012,-0.084104 -0.0022,-0.8246236 0.06704,-1.259364 0.0692,-0.4347404 0.114692,-0.8540347 0.259586,-0.9481296 0.144894,-0.094095 1.389126,-0.2458294 1.451106,-0.3620132 0.06198,-0.1161838 -0.209093,-1.2532135 -0.169382,-1.7418507 0.03971,-0.4886372 0.152995,-0.2152371 0.284802,-0.2201512 0.131807,-0.00491 0.490645,-0.1230022 0.847031,-0.2198122 0.356386,-0.09681 0.700032,-0.1267781 0.799891,-0.06467 0.09986,0.062108 0.0343,0.7192782 0.04731,0.9706677 0.01301,0.2513895 0.03548,0.9867664 0.106796,1.0410153 0.07132,0.054249 0.539853,-0.1865425 0.805733,-0.2098894 0.26588,-0.023347 0.970604,-0.1702674 1.023807,-0.1026425 0.0532,0.067625 0.01796,0.6372738 0.05309,1.2290775 0.03513,0.5918037 0.13555,1.1614526 0.09754,1.2267567 -0.03801,0.065304 -1.894444,0.3347043 -2.005279,0.4505498 -0.110835,0.1158455 -0.19765,1.0188071 -0.315524,1.5376672 -0.117874,0.5188601 -0.266647,1.2552815 -0.527548,2.0596819 -0.260901,0.8044 -0.578139,1.718563 -0.630277,1.791374 -0.05214,0.07281 -0.07063,0.115893 -0.186508,0.09648 -0.115877,-0.01941 -1.435325,-0.492635 -1.524153,-0.495232 -0.08883,-0.0026 0.08883,0.0026 7e-6,5e-6 z m 10.680954,0.141154 C 30.704489,12.10236 30.324212,11.772418 30.045224,11.366998 29.798001,11.011515 29.774701,10.51972 29.477113,10.35388 c -0.195316,-0.108845 -0.727863,0.768016 -0.859293,1.019301 -0.178872,0.297188 -0.445606,0.789712 -0.574348,0.830443 -0.128742,0.04073 -1.648271,-0.334123 -1.856943,-0.515786 -0.03438,-0.110132 0.518144,-1.055576 1.186818,-2.545732 C 28.04202,7.6519499 28.73327,5.80989 28.96224,5.0122055 29.19121,4.214521 29.306808,2.5726147 29.471558,2.4902262 c 0.164746,-0.082388 0.482371,0.1483548 0.922858,0.2677893 0.440487,0.1194344 0.801163,0.048678 0.93454,0.1841654 0.133377,0.1354913 -0.210892,1.7635187 -0.330622,2.1917068 -0.309703,1.1075869 -0.750722,1.9396915 -0.717399,2.0336374 0.03332,0.093946 0.247719,0.047962 0.371578,0.047962 0.123859,0 0.402727,-0.020462 0.563426,0.4316603 0.160699,0.4521222 0.07314,1.2016905 0.03879,2.0329994 -0.08407,0.7715032 0.507389,0.7700272 0.957247,0.4234292 0.449859,-0.3465995 1.436722,-2.2638677 1.582366,-2.2535509 0.133911,0.00949 1.134913,0.8833499 1.331998,1.3426979 0.01707,0.1482718 -0.404252,0.834634 -0.941506,1.768984 -0.537255,0.934349 -1.593001,1.387869 -2.027499,1.472191 -0.434497,0.08432 -0.898286,-0.08583 -1.175564,-0.208685 z M 4.6724247,11.92122 C 4.0598463,11.624571 3.7532964,11.387128 3.4211931,11.164552 3.0890898,10.941976 2.6181214,10.52876 2.5675652,10.399917 2.517009,10.271074 2.434741,10.087068 2.4621265,9.9043422 2.489512,9.7216162 2.8795985,8.2853366 3.0616152,8.2114537 3.2436319,8.1375709 3.9366992,8.991599 4.3431507,9.187454 c 0.4064515,0.1958551 1.3564008,0.4897313 1.6651149,0.5258871 0.3087141,0.036156 0.6403045,0.055092 0.9781584,0.052732 0.337854,-0.00236 0.958556,-0.051177 1.1895275,-0.116621 0.2309715,-0.065444 0.2933038,0.069585 0.2880925,0.1754795 -0.00521,0.1058946 -0.00937,0.4120174 0.040079,0.7211764 0.049449,0.309159 0.1072865,0.69483 0.1243156,0.795904 0.017029,0.101074 0.00284,0.197204 -0.2166232,0.33749 C 8.19235,11.819788 7.570309,12.117031 6.7069278,12.235857 5.8435466,12.354683 5.2850031,12.217869 4.6724247,11.92122 Z M 39.792854,10.34858 C 39.632623,9.7793453 39.457976,9.1154768 39.388499,8.9247041 39.319022,8.7339314 39.240612,8.4275846 39.124548,8.2535947 39.008485,8.0796049 38.907697,7.9976628 38.704313,8.131868 38.630413,8.173665 38.218272,8.4550395 38.032155,8.6028082 37.846038,8.7505768 37.526681,8.9393821 37.42525,8.9387168 37.323819,8.9380515 36.862466,8.3738404 36.751908,8.2474815 36.481587,7.9298124 36.245403,7.5796729 36.290078,7.4838271 36.307867,7.4456621 37.271863,6.8175058 37.842831,6.4299818 38.413798,6.0424578 38.356128,6.0269439 38.02791,5.3890713 37.699692,4.7511987 37.339597,4.0734285 37.396035,3.8370304 c 0.05644,-0.236398 1.499956,-0.7703114 1.699068,-0.7034236 0.199112,0.066888 0.463192,0.6315363 0.617269,0.9418227 0.154078,0.3102864 0.441548,1.0623017 0.580934,1.0947792 0.139385,0.032478 0.683035,-0.3112704 0.811004,-0.4094575 0.20754,-0.1592397 0.691794,-0.3005688 0.68982,-0.4092244 -0.002,-0.1086557 -0.335045,-0.1519899 -0.37998,-0.2813909 -0.02906,-0.083676 0.405357,-0.7114843 0.619637,-1.1252006 0.21428,-0.4137163 0.485545,-1.3738356 0.630951,-1.4291583 0.145406,-0.055323 1.792142,0.3816589 1.81528,0.5535009 0.02314,0.171842 -0.862429,1.8041135 -0.834167,1.8883609 0.02826,0.084247 0.310784,-0.061987 0.619455,0.1482197 0.30867,0.2102072 0.514782,0.5447722 0.631879,0.9916343 0.117096,0.446862 -0.08383,1.2303994 -0.193145,1.6539507 -0.109319,0.4235513 -0.444523,1.4067698 -0.555953,1.4909586 -0.111429,0.084189 -1.801613,0.2457238 -1.874629,0.1130812 -0.07302,-0.1326425 0.118288,-0.3738744 0.250917,-0.6543736 0.132628,-0.2804991 0.333002,-0.7869318 0.11692,-1.0713821 -0.216082,-0.2844503 -0.450056,-0.3254679 -0.928356,-0.03819 -0.4783,0.2872777 -0.813468,0.5648893 -0.844934,0.6854595 -0.03147,0.1205702 0.382807,0.971154 0.65767,1.8262444 0.274864,0.8550904 0.530644,2.5029995 0.500398,2.6040575 -0.03025,0.101059 -1.610065,0.657957 -1.743234,0.586354 -0.133168,-0.0716 -0.329755,-1.375838 -0.489985,-1.945073 z m 8.674263,1.384029 C 47.803605,11.46507 47.416971,11.175352 46.984314,10.586495 46.551658,9.9976382 46.256666,9.4144497 46.046184,9.1673167 c -0.210482,-0.247133 0.432394,-0.6612046 0.896225,-0.9790483 0.463831,-0.3178437 0.550944,-0.2173625 0.783893,0.3279778 0.232949,0.5453403 0.467772,0.7087876 0.99455,1.0673475 0.526779,0.35856 1.055132,0.6291363 1.361138,0.7089313 0.306006,0.07979 0.412079,0.02031 0.482306,0.169721 0.07023,0.149377 -0.723294,1.505375 -1.01191,1.578777 -0.22021,0.056 -0.421758,-0.04088 -1.085269,-0.308414 z M 16.347111,10.908244 c -0.0071,-0.07379 0.130079,-0.877043 0.214901,-1.3183907 0.08482,-0.4413478 0.17938,-0.9307239 0.254468,-1.3070863 0.07509,-0.3763624 -0.14185,-0.2827661 -0.06423,-0.465032 0.07762,-0.1822659 0.28513,-0.2456003 0.461924,-0.2713628 0.176794,-0.025763 1.137411,-0.061186 1.294543,0.022948 0.157132,0.084134 0.305336,0.089909 0.278683,0.3395308 -0.02665,0.2496217 -0.08612,0.7555215 -0.05853,1.2350255 0.02759,0.479504 -0.05018,0.9174585 -0.115056,1.1954585 -0.06488,0.278 -0.136613,0.422654 -0.378577,0.536845 -0.241964,0.114191 -0.597469,0.232009 -1.103863,0.423824 -0.506394,0.191815 -0.625103,0.156221 -0.653094,0.07165 -0.02799,-0.08457 -0.124036,-0.389622 -0.131168,-0.46341 -0.0071,-0.07379 0.0071,0.07379 -10e-7,0 z M 55.824834,9.0610862 C 55.461157,8.0697369 54.915995,6.6824631 55.021351,6.5575734 c 0.105356,-0.1248897 2.077409,-1.033328 2.205676,-0.9352635 0.128267,0.098064 0.129868,0.6500635 0.264569,1.0966794 0.134702,0.4466158 0.3416,1.4147037 0.413774,1.4426817 0.07217,0.027978 0.532367,-0.1954247 0.628748,-0.151002 0.09638,0.044423 0.389841,1.1060582 0.374563,1.2967043 -0.01528,0.190646 -0.538676,0.4840757 -0.90194,0.9079707 -0.363263,0.423894 -0.467289,1.02761 -0.700662,1.065732 -0.233373,0.03812 -1.117567,-1.22864 -1.481245,-2.2199898 z M 10.864437,9.2757636 C 10.788284,9.208898 10.553478,8.7719723 10.417127,8.5103425 10.280776,8.2487127 10.126258,7.9584355 10.097716,7.7848899 c -0.02854,-0.1735456 -0.02524,-0.2971692 0.03678,-0.3667502 0.06202,-0.069581 0.530405,-0.3126496 0.976563,-0.513987 0.446158,-0.2013374 1.517824,-0.4056055 2.257747,-0.4709714 0.739923,-0.065366 1.749497,-0.089953 1.770127,0.1199779 0.02063,0.2099309 0.01969,1.1823011 0.008,1.3622245 -0.01168,0.1799234 0.05396,0.3170953 -0.384004,0.2410681 -0.437964,-0.076027 -2.353746,0.6598267 -2.679218,0.7865405 -0.325472,0.1267138 -0.744474,0.4032827 -0.966052,0.4176035 -0.221578,0.014321 -0.177067,-0.017966 -0.25322,-0.084832 -0.07615,-0.066866 0.07615,0.066865 -2e-6,-2e-7 z M 49.958492,8.2562924 c -0.09754,-0.037955 -0.114306,-0.4730653 -0.119906,-0.7492114 -0.0056,-0.2761461 -0.05817,-0.9861755 0.005,-1.0485404 0.06321,-0.062365 0.214121,0 0.321182,0 0.107061,0 0.298404,0.091786 0.257232,-0.1518805 -0.04117,-0.2436661 0.0022,-0.646484 0.01725,-0.9437742 0.015,-0.2972902 0.114372,-0.5830175 0.04262,-0.6780749 -0.07176,-0.095057 -2.613098,0.3152723 -2.734333,0.2340039 -0.121236,-0.081269 -0.497925,-1.6872824 -0.399078,-1.8352132 0.09885,-0.1479308 2.986489,-0.096059 3.068719,-0.1553036 0.08223,-0.059245 -0.03094,-0.7525892 -0.05041,-1.0489467 -0.01947,-0.2963575 -0.04987,-0.820079 0.03753,-0.88907263 0.0874,-0.0689936 0.06182,0.0839708 0.524637,0.0999979 0.46282,0.016027 1.207351,-0.040962 1.358359,0.2101185 0.151008,0.2510803 0.02579,1.5407331 0.126303,1.6669943 0.05026,0.063134 1.016252,0.020348 1.332654,0.00241 0.341671,-0.019377 0.638118,0.082823 0.732607,0.2330617 0.09184,0.146035 0.01584,1.5959565 -0.13187,1.6438252 -0.147711,0.047869 -1.736963,-0.1884207 -1.812152,-0.118704 -0.07519,0.069717 -0.10335,1.0732113 -0.10697,1.7011852 -0.0036,0.6279738 -0.0431,1.8562631 -0.12417,2.0163621 -0.08107,0.1600989 -0.265261,0.024584 -1.106212,-0.1172894 -0.840912,-0.1418732 -1.141454,-0.033988 -1.23899,-0.071943 z M 62.282026,7.630788 C 62.16443,7.600365 62.078606,6.6091408 61.820164,5.744642 61.561722,4.8801432 61.120845,4.1548016 61.187599,4.0312126 c 0.06676,-0.1235889 1.677917,-0.7204325 1.796399,-0.6524229 0.118483,0.06801 0.388257,0.7100684 0.710258,1.3192412 0.322002,0.6091728 0.88486,2.3066655 0.828336,2.4061512 -0.05652,0.099486 -0.457636,0.061977 -1.071154,0.1349709 -0.613518,0.072994 -1.051817,0.422058 -1.169412,0.391635 z M 7.2026859,7.0086924 C 6.9289867,6.8143829 6.7494785,6.5241821 6.636828,6.3875768 6.5241775,6.2509715 6.4190789,6.0729852 6.3749317,5.985418 6.3307845,5.8978508 6.4477137,5.7642539 6.5067609,5.7071273 6.5658081,5.6500007 6.9966379,5.1521374 6.9987672,4.9764881 7.0008965,4.8008388 6.2650563,4.4673906 5.8083888,4.2924698 5.3517213,4.117549 4.8610032,4.2277906 4.7603156,4.1592717 4.659628,4.0907528 4.4206529,3.5959575 4.3471445,3.2163118 4.2736361,2.8366661 4.1496305,1.9800839 4.2221351,1.8949199 4.2946397,1.8097559 4.4571042,1.6778831 4.8731209,1.746208 5.2891376,1.8145329 6.2532156,2.2028712 6.5059811,2.3169623 6.7587466,2.4310534 7.4056408,2.7263161 7.5951546,2.8893508 7.7846684,3.0523855 8.4058674,3.5360012 8.6406682,3.7809361 8.875469,4.025871 9.4612281,4.7832042 9.4837838,4.9773002 9.5063396,5.1713962 9.0613738,5.7870285 8.8697876,5.9947579 8.6782014,6.2024873 7.476385,7.2030019 7.2026859,7.0086924 Z M 24.700073,3.3036253 c -0.06976,-0.037401 -0.561348,-1.6328192 -0.476508,-1.7370799 0.08484,-0.1042607 1.114219,-0.4940259 1.229185,-0.502038 0.114966,-0.00801 0.434148,1.8341629 0.423931,1.8910643 -0.01022,0.056901 -0.415218,0.1471425 -0.591984,0.1922956 -0.176766,0.045153 -0.514864,0.1931592 -0.584624,0.155758 z M 26.073199,2.4088088 C 26.041784,2.2618916 25.721225,1.120794 25.801973,1.0289569 25.882721,0.9371198 26.9741,0.70693949 27.024932,0.75234601 c 0.05083,0.0454065 0.469378,1.82286279 0.399219,1.92194099 -0.07016,0.099078 -1.041725,0.3201509 -1.14345,0.31349 -0.101725,-0.00666 -0.176087,-0.432051 -0.207502,-0.5789682 z"
       id="path1" /></g></svg>
