<?xml version="1.0" encoding="UTF-8" standalone="no"?>
<!-- Created with Inkscape (http://www.inkscape.org/) -->

<svg
   width="128"
   height="48"
   viewBox="0 0 33.866667 12.700001"
   version="1.1"
   id="svg1"
   xml:space="preserve"
   xmlns="http://www.w3.org/2000/svg"
   xmlns:svg="http://www.w3.org/2000/svg"><defs
     id="defs1" /><g
     id="layer1"><path
       style="fill:none;stroke:#ffffff;stroke-width:0.75;stroke-dasharray:none"
       d="M 5.6463207,3.7098771 4.598803,4.8112962 C 3.9148727,5.5304191 2.99223,5.1095877 2.7428037,4.5800079 2.4933774,4.050428 2.7588041,3.2499003 3.1928715,2.8343467 3.7330138,2.3172425 4.6791223,2.1298554 5.3874616,2.3694506 6.0811406,2.604087 6.6043066,3.3357655 6.8189647,4.0358845 7.0602101,4.8227193 6.9311123,5.7664721 6.536389,6.4886229 6.0297745,7.41548 4.0824846,8.4935802 4.0824846,8.4935802"
       id="path1" /><path
       style="fill:none;stroke:#ffffff;stroke-width:0.75;stroke-dasharray:none"
       d="M 9.1940257,3.9887064 C 9.9486458,3.9078542 12.374211,3.4227413 12.374211,3.4227413"
       id="path2" /><path
       style="fill:none;stroke:#ffffff;stroke-width:0.75;stroke-dasharray:none"
       d="M 11.59264,1.8595996 C 11.21533,3.0184805 9.9216952,6.602926 9.9216952,6.602926"
       id="path3" /><path
       style="fill:none;stroke:#ffffff;stroke-width:0.75;stroke-dasharray:none"
       d="m 13.290535,3.5305441 1.948345,0.011163 -0.519957,1.2824711"
       id="path4" /><path
       style="fill:none;stroke:#ffffff;stroke-width:0.75;stroke-dasharray:none"
       d="m 13.290535,5.2284394 0.0539,2.964579 c 0,0 -1.272679,0.034822 -1.563141,-0.3234087 C 11.490832,7.511379 11.537977,7.1573553 12.050799,6.7107289 12.56362,6.2641025 14.260758,6.3334188 14.260758,6.3334188"
       id="path5" /><path
       style="fill:none;stroke:#ffffff;stroke-width:0.75;stroke-dasharray:none"
       d="m 17.700492,3.7985278 c 0,0 2.543064,-0.2941198 4.126482,-0.6561134"
       id="path6" /><path
       style="fill:none;stroke:#ffffff;stroke-width:0.75;stroke-dasharray:none"
       d="m 19.893461,1.7760387 c 0.215606,1.6170431 0.781571,4.2339714 0.781571,4.2339714 L 19.381397,6.117813"
       id="path7" /><path
       style="fill:none;stroke:#ffffff;stroke-width:0.75;stroke-dasharray:none"
       d="m 17.440946,5.5248973 c 0.161704,1.4553388 0.916324,2.3716632 1.724846,2.9376283"
       id="path8" /><path
       style="fill:none;stroke:#ffffff;stroke-width:0.75;stroke-dasharray:none"
       d="m 23.988054,3.6922485 -0.02695,3.6113963 0.754621,-0.781571"
       id="path9" /><path
       style="fill:none;stroke:#ffffff;stroke-width:0.75;stroke-dasharray:none"
       d="m 25.490755,3.6598803 4.015657,-0.053901"
       id="path10" /><path
       style="fill:none;stroke:#ffffff;stroke-width:0.75;stroke-dasharray:none"
       d="m 27.889369,2.0752053 2e-6,6.225616 c 0,0 -1.062658,-0.00283 -1.45534,-0.2425565 -0.392682,-0.2397292 -0.47798,-0.9240072 0,-1.3744867 0.47798,-0.4504794 2.614219,-0.4042608 2.614219,-0.4042608"
       id="path11" /><path
       style="fill:none;stroke:#ffffff;stroke-width:0.35;stroke-dasharray:none"
       d="M 17.685417,9.8639627 17.961464,11.0781"
       id="path12" /><path
       style="fill:none;stroke:#ffffff;stroke-width:0.35;stroke-dasharray:none"
       d="m 18.784138,10.635726 c 0,0 -0.767461,0.265981 -0.990357,0.529485 -0.222896,0.263504 -0.213854,0.458162 0.04381,0.543919 0.257667,0.08576 1.410966,0.04139 1.410966,0.04139"
       id="path13" /><path
       style="fill:none;stroke:#ffffff;stroke-width:0.35;stroke-dasharray:none"
       d="m 22.111694,9.8330921 0.242359,1.1063349"
       id="path12-9" /><path
       style="fill:none;stroke:#ffffff;stroke-width:0.35;stroke-dasharray:none"
       d="m 23.025454,10.377001 c 0,0 -0.711533,0.42637 -0.914784,0.705307 -0.203252,0.278937 -0.145475,0.578002 0.117717,0.644896 0.263195,0.0669 1.410263,-0.06078 1.410263,-0.06078"
       id="path13-3" /><path
       style="fill:none;stroke:#ffffff;stroke-width:0.35;stroke-dasharray:none"
       d="m 29.250043,9.7419428 0.242359,1.1063352"
       id="path12-9-7" /><path
       style="fill:none;stroke:#ffffff;stroke-width:0.35;stroke-dasharray:none"
       d="m 30.294863,10.298101 c 0,0 -0.740511,0.373784 -0.963407,0.637288 -0.222896,0.263504 -0.186903,0.565965 0.07076,0.651722 0.257667,0.08576 1.410966,0.04139 1.410966,0.04139"
       id="path13-3-7" /><path
       style="fill:none;stroke:#ffffff;stroke-width:0.35;stroke-dasharray:none"
       d="m 19.959525,11.34401 c 0.145376,-0.05231 0.649688,-0.241226 0.801674,-0.0273 0.151987,0.213931 -0.232075,0.488871 -0.232075,0.488871"
       id="path14" /><path
       style="fill:none;stroke:#ffffff;stroke-width:0.35;stroke-dasharray:none"
       d="m 27.301829,11.105632 c 0.153951,-0.01303 0.689931,-0.06542 0.781571,0.18048 0.09164,0.245904 -0.350359,0.412435 -0.350359,0.412435"
       id="path14-9" /><path
       style="fill:none;stroke:#ffffff;stroke-width:0.35;stroke-dasharray:none"
       d="m 25.091815,9.7315079 c -0.07092,0.3343451 -0.08597,2.1779061 -0.08597,2.1779061"
       id="path15" /><path
       style="fill:none;stroke:#ffffff;stroke-width:0.35;stroke-dasharray:none"
       d="m 24.338298,10.436155 0.175168,0.755104 c 0,0 0.681918,-0.898278 1.063476,-0.962455 0.381558,-0.06418 0.605379,-0.0028 0.687759,0.229253 0.08238,0.232042 0.05906,1.262631 0.05906,1.262631 -0.142928,-0.0048 -0.47261,-0.01597 -0.616686,-0.153106 -0.144076,-0.137139 -0.07539,-0.483828 0.118107,-0.593776 0.193499,-0.109949 0.753588,-0.163476 0.86793,-0.163476"
       id="path16" /><path
       style="fill:none;stroke:#ffffff;stroke-width:0.35;stroke-dasharray:none"
       d="M 18.809294,9.7479542 19.09515,10.529293"
       id="path17" /><path
       style="fill:none;stroke:#ffffff;stroke-width:0.35;stroke-dasharray:none"
       d="m 19.342891,9.6145552 0.247742,0.7813388"
       id="path18" /><path
       style="fill:#ffffff;stroke:none;stroke-width:0.35;stroke-dasharray:none"
       d="m 30.805417,1.3329357 -0.672678,1.3329357 0.367767,0 0.952852,-1.3339925 z"
       id="path19" /><path
       style="fill:#ffffff;stroke:none;stroke-width:0.35;stroke-dasharray:none"
       d="m 32.167684,1.3329357 -0.878177,1.3329357 0.323972,0 1.266154,-1.3339925 z"
       id="path19-1" /></g></svg>
