<?xml version="1.0" encoding="UTF-8" standalone="no"?>
<!-- Created with Inkscape (http://www.inkscape.org/) -->

<svg
   xmlns:dc="http://purl.org/dc/elements/1.1/"
   xmlns:cc="http://creativecommons.org/ns#"
   xmlns:rdf="http://www.w3.org/1999/02/22-rdf-syntax-ns#"
   xmlns:svg="http://www.w3.org/2000/svg"
   xmlns="http://www.w3.org/2000/svg"
   xmlns:sodipodi="http://sodipodi.sourceforge.net/DTD/sodipodi-0.dtd"
   xmlns:inkscape="http://www.inkscape.org/namespaces/inkscape"
   width="256"
   height="48"
   viewBox="0 0 256 48"
   id="svg2"
   version="1.1"
   inkscape:version="0.91 r13725"
   sodipodi:docname="logotype.svg"
   inkscape:export-filename="/Users/taka/Dropbox/web-icon/logotype.png"
   inkscape:export-xdpi="60"
   inkscape:export-ydpi="60">
  <defs
     id="defs4" />
  <sodipodi:namedview
     id="base"
     pagecolor="#ffffff"
     bordercolor="#666666"
     borderopacity="1.0"
     inkscape:pageopacity="0.0"
     inkscape:pageshadow="2"
     inkscape:zoom="3.959798"
     inkscape:cx="182.00242"
     inkscape:cy="-2.2702889"
     inkscape:document-units="px"
     inkscape:current-layer="layer1"
     showgrid="false"
     units="px"
     inkscape:window-width="1680"
     inkscape:window-height="955"
     inkscape:window-x="0"
     inkscape:window-y="1"
     inkscape:window-maximized="1" />
  <metadata
     id="metadata7">
    <rdf:RDF>
      <cc:Work
         rdf:about="">
        <dc:format>image/svg+xml</dc:format>
        <dc:type
           rdf:resource="http://purl.org/dc/dcmitype/StillImage" />
        <dc:title></dc:title>
      </cc:Work>
    </rdf:RDF>
  </metadata>
  <g
     inkscape:label="Layer 1"
     inkscape:groupmode="layer"
     id="layer1"
     transform="translate(0,-1004.3622)">
    <g
       transform="matrix(1,0,-0.17133719,1,10.85914,-0.25253814)"
       style="font-style:normal;font-weight:normal;font-size:40px;line-height:125%;font-family:sans-serif;letter-spacing:0px;word-spacing:0px;fill:#ffffff;fill-opacity:1;stroke:none;stroke-width:1px;stroke-linecap:butt;stroke-linejoin:miter;stroke-opacity:1"
       id="text3336">
      <path
         d="m 184.83275,1014.5016 0,5.28 c 3.24,0.28 6.886,-0.065 11.086,-0.065 3.8,0 7.74985,-0.24 10.54985,-0.48 l 0,-5.32 c -3.08,0.32 -6.62985,0.56 -10.58985,0.56 -4.2,0 -8.086,0.3451 -11.046,0.025 z m 3.36,16.96 -5.24,-0.48 c -0.32,1.48 -0.8,3.44 -0.8,5.76 0,5.48 4.766,8.0549 13.926,8.0549 5.6,0 9.38985,-0.52 12.86985,-1.36 l -0.04,-5.64 c -3.52,1 -7.62985,1.6 -13.02985,1.6 -5.76,0 -8.366,-1.3349 -8.366,-3.8949 0,-1.36 0.28,-2.6 0.68,-4.04 z"
         style="font-style:normal;font-variant:normal;font-weight:bold;font-stretch:normal;font-family:'Noto Sans CJK JP';-inkscape-font-specification:'Noto Sans CJK JP Bold';baseline-shift:baseline"
         id="path3356"
         inkscape:connector-curvature="0"
         sodipodi:nodetypes="ccsccscccssccssc" />
      <path
         d="m 210.91289,1024.5565 0,6.28 c 1.48,-0.12 4.16,-0.2 6.44,-0.2 l 15.05142,0 c 1.68,0 3.72,0.16 4.68,0.2 0,0 -0.18878,-2.1019 -0.1894,-3.14 -6.4e-4,-1.0591 0.1894,-3.14 0.1894,-3.14 0,0 -2.8,0.24 -4.68,0.24 l -15.05142,0 c -2.08,0 -5,-0.12 -6.44,-0.24 z"
         style="font-style:normal;font-variant:normal;font-weight:bold;font-stretch:normal;font-family:'Noto Sans CJK JP';-inkscape-font-specification:'Noto Sans CJK JP Bold';baseline-shift:baseline"
         id="path3358"
         inkscape:connector-curvature="0"
         sodipodi:nodetypes="ccsscacssc" />
      <path
         d="m 267.5467,1012.0765 -5.76,0 c 0.16,0.64 0.36,1.8 0.44,2.76 0.08,1.08 0.16,3.2 0.2,5.4 -1.4,0.04 -2.8,0.08 -4.12,0.08 -2.16,0 -4.12,-0.12 -6.08,-0.4 l 0,5.04 c 2,0.12 4.44,0.24 6.2,0.24 1.32,0 2.72,0 4.08,-0.04 l 0,1.4 c 0,6.76 -0.68,10.32 -3.72,13.52 -1.12,1.24 -3.12,2.52 -4.68,3.2 l 4.64,3.64 c 7.96,-5.08 8.68,-10.88 8.68,-20.32 l 0,-1.64 c 2.4,-0.16 4.6,-0.32 6.32,-0.52 l 0.04,-5.2 c -1.76,0.32 -4,0.56 -6.4,0.76 0,-2.24 0,-4.32 0.04,-5.16 0,-0.92 0.04,-1.88 0.12,-2.76 z m -18.68239,0.68 -5.92,-0.56 c -0.04,1 -0.08,2.36 -0.24,3.44 -0.52,3.28 -1.32,9.44 -1.32,16 0,4.96 1.4,10.56 2.28,12.96 l 4.48,-0.44 c -0.04,-0.56 -0.08,-1.24 -0.12,-1.68 0,-0.44 0.12,-1.32 0.24,-1.96 0.52,-2.24 1.56,-6.28 2.76,-9.72 l -2.52,-1.6 c -0.64,1.44 -1.4,3.4 -1.92,4.64 -1.08,-4.96 0.36,-13.36 1.36,-17.8 0.16,-0.84 0.6,-2.28 0.92,-3.28 z m 22.6,-2.08 -2.72,0.84 c 0.8,1.64 1.52,3.96 2.08,5.68 l 2.76,-0.92 c -0.44,-1.52 -1.36,-4 -2.12,-5.6 z m 4.12,-1.28 -2.72,0.88 c 0.8,1.6 1.6,3.88 2.2,5.6 l 2.72,-0.88 c -0.48,-1.52 -1.44,-4 -2.2,-5.6 z"
         style="font-style:normal;font-variant:normal;font-weight:bold;font-stretch:normal;font-family:'Noto Sans CJK JP';-inkscape-font-specification:'Noto Sans CJK JP Bold';baseline-shift:baseline"
         id="path3360"
         inkscape:connector-curvature="0"
         sodipodi:nodetypes="ccccsccscscccscccccccccsccccccccccccccccccc" />
      <path
         d="m 292.4003,1013.3565 -5.68,-2.28 c -0.68,1.68 -1.44,3 -1.96,4.08 -2.12,3.8 -10.32,20.12 -13.28,28.12 l 5.64,1.92 c 0.6,-2.12 2,-6.6 3.04,-8.92 1.44,-3.24 3.68,-6.04 6.4,-6.04 1.44,0 2.24,0.84 2.36,2.24 0.12,1.64 0.08,4.92 0.24,7.04 0.16,2.92 2.24,5.56 6.68,5.56 6.12,0 9.84,-4.56 11.92,-11.4 l -4.32,-3.52 c -1.96088,4.7075 -3.76698,8.8087 -6.76,9.44 -1.24835,0.2633 -2.44,-0.6 -2.6,-2.16 -0.2,-1.68 -0.08,-4.88 -0.16,-6.68 -0.16,-3.32 -1.96,-5.2 -4.96,-5.2 -1.52,0 -3.12,0.36 -4.6,1.2 2,-3.52 4.8,-8.64 6.76,-11.52 0.44,-0.64 0.88,-1.32 1.28,-1.88 z"
         style="font-style:normal;font-variant:normal;font-weight:bold;font-stretch:normal;font-family:'Noto Sans CJK JP';-inkscape-font-specification:'Noto Sans CJK JP Bold';baseline-shift:baseline"
         id="path3362"
         inkscape:connector-curvature="0"
         sodipodi:nodetypes="ccccccsccsccsccsccc" />
      <path
         d="m 304.73693,1028.3685 4.23689,3.4352 c 1.05827,-1.8007 2.23902,-3.2576 4.34932,-4.9393 2.35305,5.4744 3.87346,11.423 5.72446,18.8521 l 5.48,-1.44 c -1.32,-4.48 -4.4,-13.04 -6.28,-17.4 -0.36,-0.8 -0.72,-1.64 -1.12,-2.48 4.09893,-2.4957 8.75738,-3.9571 11.76,-3.6 3.04008,0.3616 4.8,1.64 4.8,3.68 0,2.88 -2.2,4.52 -5.2,4.52 -1.76,0 -3.76,-0.6 -5.56,-1.36 l -0.12,5.04 c 1.52,0.56 4,1.12 6.16,1.12 6.12,0 9.96,-3.56 9.96,-9.16 0,-4.64 -4.45241,-8.0434 -9.67384,-8.2661 -1.89745,-0.081 -4.11838,0.092 -5.76126,0.6922 l 2.9151,-2.1861 c -1.36,-1.44 -4.36,-4.04 -5.8,-5.12 l -3.68,2.56 c 1.52,1.16 4.02006,3.5507 5.46006,5.0307 -2.55086,0.7153 -4.86458,1.6707 -7.14006,2.9293 -0.64,-1.36 -1.28,-2.64 -1.88,-3.8 -0.44,-0.76 -1.24,-2.4 -1.6,-3.12 l -5.2,2 c 0.8,1.04 1.8,2.52 2.36,3.52 0.6,1.04 1.37857,2.2001 2.37221,3.8465 -1.50235,1.1004 -2.31402,1.6922 -3.33428,2.6837 -0.85155,0.8277 -1.7162,1.5917 -3.2286,2.9618 z"
         style="font-style:normal;font-variant:normal;font-weight:bold;font-stretch:normal;font-family:'Noto Sans CJK JP';-inkscape-font-specification:'Noto Sans CJK JP Bold';baseline-shift:baseline"
         id="path3364"
         inkscape:connector-curvature="0"
         sodipodi:nodetypes="cccccccsssccssscccccccccccsc" />
      <path
         d="m 354.58249,1014.6765 c 0.24,0.68 0.48,1.52 0.8,2.44 -4.24,0.28 -9.36,0.16 -15.36,-0.56 l 0.08,5.12 c 6.84,0.56 12.32,0.52 17.08,0.16 1.12,2.68 2.56,5.32 3.76,7.24 -1.24,-0.08 -3.88,-0.32 -5.84,-0.48 l -0.4,4.24 c 3.36,0.28 8.4,0.8 10.64,1.24 l 2.48,-3.6 c -0.72,-0.8 -1.48,-1.68 -2.16,-2.68 -1,-1.44 -2.4,-3.92 -3.56,-6.52 2.52,-0.36 5.08,-0.84 7.12,-1.44 l -0.64,-5.04 c -2.52,0.76 -5.32,1.4 -8.2,1.84 -0.68,-2 -1.28,-4.16 -1.68,-6.28 l -5.4,0.64 c 0.52,1.32 0.96,2.76 1.28,3.68 z m -6.56,15.52 -5,-1.16 c -1.36,2.72 -2.12,5 -2.12,7.44 0,5.76 5.16,8.92 13.32,8.96 4.88,0 8.48,-0.52 10.76,-0.96 l 0.28,-5.04 c -2.84,0.56 -6.36,0.96 -10.72,0.96 -5.48,0 -8.48,-1.44 -8.48,-4.8 0,-1.76 0.68,-3.52 1.96,-5.4 z"
         style="font-style:normal;font-variant:normal;font-weight:bold;font-stretch:normal;font-family:'Noto Sans CJK JP';-inkscape-font-specification:'Noto Sans CJK JP Bold';baseline-shift:baseline"
         id="path3366"
         inkscape:connector-curvature="0" />
      <path
         d="m 378.21047,1014.4765 -6.16,-0.08 c 0.24,1.24 0.32,2.96 0.32,4.08 0,2.44 0.04,7.12 0.44,10.8 1.12,10.72 4.92,14.68 9.32,14.68 3.2,0 5.72,-2.44 8.36,-9.4 l -4,-4.88 c -0.76,3.2 -2.36,7.88 -4.24,7.88 -2.52,0 -3.72,-3.96 -4.28,-9.72 -0.24,-2.88 -0.28,-5.88 -0.24,-8.48 0,-1.12 0.2,-3.44 0.48,-4.88 z m 20,0.92 -5.08,1.64 c 4.36,4.96 6.48,14.68 7.12,21.12 l 5.24,-2.04 c -0.44,-6.12 -3.48,-16.12 -7.28,-20.72 z"
         style="font-style:normal;font-variant:normal;font-weight:bold;font-stretch:normal;font-family:'Noto Sans CJK JP';-inkscape-font-specification:'Noto Sans CJK JP Bold';baseline-shift:baseline"
         id="path3368"
         inkscape:connector-curvature="0" />
    </g>
  </g>
</svg>
